<?xml version="1.0"?>
<svg width="100" height="100" xmlns="http://www.w3.org/2000/svg" xmlns:svg="http://www.w3.org/2000/svg">
 <!-- Created with SVG-edit - https://github.com/SVG-Edit/svgedit-->
 <g class="layer">
  <title>Layer 1</title>
  <path d="m33.891715,70.582819c-7.097428,0 -12.853779,-5.756351 -12.853779,-12.853779l0,0c0.004285,-5.696366 3.714742,-10.495111 8.841258,-12.176813l0,0c0.177811,-4.84159 4.149628,-8.706293 9.031922,-8.710578l0,0c1.563876,0 3.03135,0.407036 4.306016,1.107567l0,0c2.712147,-4.509534 7.647998,-7.532314 13.299377,-7.534457l0,0c8.455644,0.004285 15.332416,6.758945 15.527365,15.165317l0,0c5.060104,1.722406 8.702008,6.499728 8.706293,12.148963l0,0c0,7.097428 -5.756351,12.853779 -12.853779,12.853779l0,0l-34.004672,0l0,0zm35.564264,-21.262293c-1.094714,-0.203518 -1.850944,-1.203971 -1.745972,-2.311538l0,0c0.036419,-0.366333 0.057842,-0.719812 0.057842,-1.064721l0,0c-0.014996,-6.210518 -5.038681,-11.236345 -11.249199,-11.244914l0,0c-4.818025,-0.004285 -8.916238,3.037776 -10.520818,7.305231l0,0c-0.26136,0.691962 -0.869772,1.208255 -1.602438,1.349647l0,0c-0.728381,0.141392 -1.486754,-0.111399 -1.985909,-0.66197l0,0c-0.891195,-0.97046 -2.112304,-1.566019 -3.49837,-1.566019l0,0c-2.624313,0.004285 -4.747329,2.1273 -4.755898,4.751614l0,0c0,0.291352 0.036419,0.591274 0.096403,0.908334l0,0c0.104973,0.569851 -0.017138,1.15684 -0.349194,1.63243l0,0c-0.332056,0.477732 -0.83978,0.794792 -1.407489,0.886911l0,0c-4.070363,0.670539 -7.180978,4.175336 -7.176693,8.421368l0,0c0.008569,4.732333 3.838995,8.558474 8.571328,8.571328l0,0l34.006815,0c4.732333,-0.012854 8.556332,-3.838995 8.567044,-8.571328l0,0c0.008569,-4.192474 -3.020638,-7.669421 -7.007452,-8.406371l0,0" fill="#000000" id="svg_1" stroke="#000000"/>
 </g>
</svg>