<?xml version="1.0"?>
<svg width="100" height="100" xmlns="http://www.w3.org/2000/svg" xmlns:svg="http://www.w3.org/2000/svg">
 <!-- Created with SVG-edit - https://github.com/SVG-Edit/svgedit-->
 <g class="layer">
  <title>Layer 1</title>
  <path d="m79.549898,36.340317c-0.008715,-4.810712 -3.904346,-8.708521 -8.712879,-8.715058l0,-0.002179l-26.705115,0c-1.100276,-3.533956 -4.381495,-6.11797 -8.290199,-6.124507l-6.263948,0c-4.810712,0.004358 -8.708521,3.904346 -8.717236,8.715058l0,30.912309c0.008715,4.806354 3.906525,8.704164 8.717236,8.712879l41.26144,0c4.804176,-0.008715 8.704164,-3.906525 8.712879,-8.712879l0,-24.785624zm-49.974319,-10.486393l6.263948,0c2.278988,-0.008715 4.176691,1.81709 4.32049,4.087362l0.126368,2.041502l30.550634,0c2.381389,0.004358 4.350993,1.973961 4.35535,4.357529l0,1.078488c-1.28765,-0.751674 -2.762673,-1.213572 -4.357529,-1.215751l-41.26144,0c-1.594856,0.002179 -3.072058,0.466256 -4.357529,1.217929l0,-7.209531c0.006536,-2.383568 1.976139,-4.353171 4.359708,-4.357529zm41.259261,39.627367l-41.259261,0c-2.381389,-0.004358 -4.350993,-1.978318 -4.359708,-4.357529l0,-16.20565l0.002179,0c0.004358,-2.385747 1.973961,-4.35535 4.357529,-4.359708l41.26144,0c2.381389,0.004358 4.33792,1.963067 4.357529,4.33792l0,16.225258c-0.008715,2.385747 -1.978318,4.35535 -4.359708,4.359708z" fill="#000000" id="svg_1" stroke="#000000"/>
 </g>
</svg>