<?xml version="1.0"?>
<svg width="100" height="100" xmlns="http://www.w3.org/2000/svg" xmlns:svg="http://www.w3.org/2000/svg">
 <!-- Created with SVG-edit - https://github.com/SVG-Edit/svgedit-->
 <g class="layer">
  <title>Layer 1</title>
  <path d="m63.639073,29.274512c-3.537405,-3.435988 -7.35269,-6.18843 -10.482401,-6.56367c-0.17038,-0.02434 -0.346844,-0.038538 -0.53345,-0.042595l-20.597674,0c-0.328589,0 -0.653122,0.127785 -0.884351,0.365099c-0.229201,0.231229 -0.365099,0.555762 -0.365099,0.886379l0,52.229453c0,0.328589 0.127785,0.64298 0.365099,0.882323c0.237314,0.235286 0.549677,0.363071 0.884351,0.363071l37.24822,0c0.328589,0 0.64298,-0.125756 0.880294,-0.363071c0.237314,-0.237314 0.369156,-0.551705 0.369156,-0.882323l0,-34.755405c-0.07302,-4.034345 -3.233155,-8.433789 -6.884146,-12.119261zm-1.758561,1.768702c1.632804,1.594266 3.101314,3.399478 4.196611,5.139784c-0.949258,-0.375241 -1.945167,-0.653122 -2.880226,-0.874209c-2.058753,-0.462459 -4.072883,-0.649065 -5.324362,-0.724113c0.006085,-0.269768 0.008113,-0.574017 0.008113,-0.904634c0,-1.762617 -0.111558,-4.275716 -0.722085,-6.49065c-0.006085,-0.020283 -0.010142,-0.040567 -0.018255,-0.06085c1.549643,1.022277 3.237212,2.379229 4.740203,3.914674zm6.13975,43.850429l-34.74932,0l0,-49.730553l19.354308,0l0,0.004057c0.843785,-0.050708 1.571954,0.782935 2.129745,2.689563c0.507082,1.815354 0.634867,4.182413 0.632838,5.82333c0.004057,1.202799 -0.054765,2.010073 -0.054765,2.010073l-0.099388,1.32247l1.330583,0.014198c0.006085,0 3.074946,0.03651 6.084985,0.720057c2.892396,0.624725 5.153982,1.870119 5.364928,3.279807c0.008113,0.125756 0.010142,0.251513 0.008113,0.369156l0,33.497841z" fill="#000000" id="svg_1" stroke="#000000"/>
 </g>
</svg>